<?xml version="1.0" standalone="no"?>
<!DOCTYPE svg PUBLIC "-//W3C//DTD SVG 20010904//EN"
 "http://www.w3.org/TR/2001/REC-SVG-20010904/DTD/svg10.dtd">
<svg version="1.0" xmlns="http://www.w3.org/2000/svg"
 width="1563.000000pt" height="1563.000000pt" viewBox="0 0 1563.000000 1563.000000"
 preserveAspectRatio="xMidYMid meet">
<metadata>
Created by potrace 1.14, written by Peter Selinger 2001-2017
</metadata>
<g transform="translate(0.000000,1563.000000) scale(0.100000,-0.100000)"
fill="#000000" stroke="none">
<path d="M8080 10910 c-494 -51 -808 -127 -1167 -280 -512 -220 -931 -574
-1209 -1022 -195 -315 -345 -751 -398 -1159 -49 -378 -37 -878 30 -1249 196
-1078 864 -1821 1934 -2151 551 -170 1147 -203 1775 -98 371 62 783 198 1125
373 l85 43 3 1312 2 1311 -735 0 -735 0 0 -80 0 -80 410 0 410 0 0 -1288 0
-1289 -148 -46 c-347 -110 -667 -157 -1062 -157 -482 0 -870 78 -1216 245
-605 292 -986 836 -1149 1637 -90 440 -118 1111 -64 1548 73 600 258 1081 559
1460 77 96 255 273 345 341 456 348 1028 515 1700 495 594 -17 1183 -115 1518
-251 16 -7 18 0 15 86 l-3 93 -45 14 c-254 75 -594 136 -965 173 -224 23 -864
34 -1015 19z"/>
</g>
</svg>
